<mxGraphModel dx="0" dy="0" grid="1" gridSize="10" guides="1" tooltips="1" connect="1" arrows="1" fold="1" page="0" pageScale="1" background="none" math="0" shadow="0">
  <root>
    <mxCell id="0" />
    <mxCell id="1" parent="0" />
    <mxCell id="node3" parent="1" vertex="1" value="&lt;p style=&quot;margin:0px;margin-top:4px;text-align:center;&quot;&gt;&lt;b&gt;games.domainmodel.model.Game&lt;/b&gt;&lt;/p&gt;&lt;hr size=&quot;1&quot;/&gt;&lt;p style=&quot;margin:0 0 0 4px;line-height:1.6;&quot;&gt; __game_title: &lt;br/&gt; __website_url: &lt;br/&gt; __game_id: &lt;br/&gt; __price: &lt;br/&gt; __genres: &lt;br/&gt; __release_date: &lt;br/&gt; __image_url: &lt;br/&gt; __publisher: &lt;br/&gt; __description: &lt;br/&gt; __reviews: &lt;/p&gt;&lt;hr size=&quot;1&quot;/&gt;&lt;p style=&quot;margin:0 0 0 4px;line-height:1.6;&quot;&gt; __init__(self, game_id: int, game_title: str): &lt;br/&gt; publisher(self): &lt;br/&gt; publisher(self, publisher: Publisher): &lt;br/&gt; game_id(self): &lt;br/&gt; title(self): &lt;br/&gt; title(self, new_title): &lt;br/&gt; price(self): &lt;br/&gt; price(self, price: float): &lt;br/&gt; release_date(self): &lt;br/&gt; release_date(self, release_date: str): &lt;br/&gt; description(self): &lt;br/&gt; description(self, description: str): &lt;br/&gt; image_url(self): &lt;br/&gt; image_url(self, image_url: str): &lt;br/&gt; website_url(self): &lt;br/&gt; website_url(self, website_url: str): &lt;br/&gt; reviews(self): &lt;br/&gt; genres(self): &lt;br/&gt; add_genre(self, genre: Genre): &lt;br/&gt; remove_genre(self, genre: Genre): &lt;br/&gt; __repr__(self): &lt;br/&gt; __eq__(self, other): &lt;br/&gt; __hash__(self): &lt;br/&gt; __lt__(self, other): &lt;/p&gt;" style="verticalAlign=top;align=left;overflow=fill;fontSize=14;fontFamily=Helvetica;html=1;rounded=0;shadow=0;comic=0;labelBackgroundColor=none;strokeWidth=1;">
      <mxGeometry x="-142" y="-15" width="265" height="781" as="geometry" />
    </mxCell>
    <mxCell id="node0" parent="1" vertex="1" value="&lt;p style=&quot;margin:0px;margin-top:4px;text-align:center;&quot;&gt;&lt;b&gt;games.domainmodel.model.Genre&lt;/b&gt;&lt;/p&gt;&lt;hr size=&quot;1&quot;/&gt;&lt;p style=&quot;margin:0 0 0 4px;line-height:1.6;&quot;&gt; __genre_name: &lt;/p&gt;&lt;hr size=&quot;1&quot;/&gt;&lt;p style=&quot;margin:0 0 0 4px;line-height:1.6;&quot;&gt; __init__(self, genre_name: str): &lt;br/&gt; genre_name(self): &lt;br/&gt; __repr__(self): &lt;br/&gt; __eq__(self, other): &lt;br/&gt; __lt__(self, other): &lt;br/&gt; __hash__(self): &lt;/p&gt;" style="verticalAlign=top;align=left;overflow=fill;fontSize=14;fontFamily=Helvetica;html=1;rounded=0;shadow=0;comic=0;labelBackgroundColor=none;strokeWidth=1;">
      <mxGeometry x="511" y="811" width="265" height="187" as="geometry" />
    </mxCell>
    <mxCell id="node5" parent="1" vertex="1" value="&lt;p style=&quot;margin:0px;margin-top:4px;text-align:center;&quot;&gt;&lt;b&gt;games.domainmodel.model.Publisher&lt;/b&gt;&lt;/p&gt;&lt;hr size=&quot;1&quot;/&gt;&lt;p style=&quot;margin:0 0 0 4px;line-height:1.6;&quot;&gt; __publisher_name: &lt;/p&gt;&lt;hr size=&quot;1&quot;/&gt;&lt;p style=&quot;margin:0 0 0 4px;line-height:1.6;&quot;&gt; __init__(self, publisher_name: str): &lt;br/&gt; publisher_name(self): &lt;br/&gt; publisher_name(self, new_publisher_name: str): &lt;br/&gt; __repr__(self): &lt;br/&gt; __eq__(self, other): &lt;br/&gt; __lt__(self, other): &lt;br/&gt; __hash__(self): &lt;/p&gt;" style="verticalAlign=top;align=left;overflow=fill;fontSize=14;fontFamily=Helvetica;html=1;rounded=0;shadow=0;comic=0;labelBackgroundColor=none;strokeWidth=1;">
      <mxGeometry x="180" y="811" width="286" height="209" as="geometry" />
    </mxCell>
    <mxCell id="node1" parent="1" vertex="1" value="&lt;p style=&quot;margin:0px;margin-top:4px;text-align:center;&quot;&gt;&lt;b&gt;games.domainmodel.model.Review&lt;/b&gt;&lt;/p&gt;&lt;hr size=&quot;1&quot;/&gt;&lt;p style=&quot;margin:0 0 0 4px;line-height:1.6;&quot;&gt; __user: &lt;br/&gt; __game: &lt;br/&gt; __comment: &lt;br/&gt; __rating: &lt;/p&gt;&lt;hr size=&quot;1&quot;/&gt;&lt;p style=&quot;margin:0 0 0 4px;line-height:1.6;&quot;&gt; __init__(self, user: User, game: Game, rating: int, comment: str): &lt;br/&gt; game(self): &lt;br/&gt; comment(self): &lt;br/&gt; comment(self, new_text): &lt;br/&gt; rating(self): &lt;br/&gt; rating(self, new_rating: int): &lt;br/&gt; user(self): &lt;br/&gt; __repr__(self): &lt;br/&gt; __eq__(self, other): &lt;/p&gt;" style="verticalAlign=top;align=left;overflow=fill;fontSize=14;fontFamily=Helvetica;html=1;rounded=0;shadow=0;comic=0;labelBackgroundColor=none;strokeWidth=1;">
      <mxGeometry x="468" y="-15" width="335" height="319" as="geometry" />
    </mxCell>
    <mxCell id="node2" parent="1" vertex="1" value="&lt;p style=&quot;margin:0px;margin-top:4px;text-align:center;&quot;&gt;&lt;b&gt;games.domainmodel.model.User&lt;/b&gt;&lt;/p&gt;&lt;hr size=&quot;1&quot;/&gt;&lt;p style=&quot;margin:0 0 0 4px;line-height:1.6;&quot;&gt; __favourite_games: &lt;br/&gt; __password: &lt;br/&gt; __username: &lt;br/&gt; __reviews: &lt;/p&gt;&lt;hr size=&quot;1&quot;/&gt;&lt;p style=&quot;margin:0 0 0 4px;line-height:1.6;&quot;&gt; __init__(self, username: str, password: str): &lt;br/&gt; username(self): &lt;br/&gt; password(self): &lt;br/&gt; reviews(self): &lt;br/&gt; add_review(self, new_review): &lt;br/&gt; remove_review(self, review): &lt;br/&gt; favourite_games(self): &lt;br/&gt; add_favourite_game(self, game): &lt;br/&gt; remove_favourite_game(self, game): &lt;br/&gt; __repr__(self): &lt;br/&gt; __eq__(self, other): &lt;br/&gt; __hash__(self): &lt;br/&gt; __lt__(self, other): &lt;/p&gt;" style="verticalAlign=top;align=left;overflow=fill;fontSize=14;fontFamily=Helvetica;html=1;rounded=0;shadow=0;comic=0;labelBackgroundColor=none;strokeWidth=1;">
      <mxGeometry x="168" y="-15" width="255" height="407" as="geometry" />
    </mxCell>
    <mxCell id="node4" parent="1" vertex="1" value="&lt;p style=&quot;margin:0px;margin-top:4px;text-align:center;&quot;&gt;&lt;b&gt;games.domainmodel.model.Wishlist&lt;/b&gt;&lt;/p&gt;&lt;hr size=&quot;1&quot;/&gt;&lt;p style=&quot;margin:0 0 0 4px;line-height:1.6;&quot;&gt; __list_of_games: &lt;br/&gt; __user: &lt;br/&gt; __current: &lt;/p&gt;&lt;hr size=&quot;1&quot;/&gt;&lt;p style=&quot;margin:0 0 0 4px;line-height:1.6;&quot;&gt; __init__(self, user: User): &lt;br/&gt; list_of_games(self): &lt;br/&gt; size(self): &lt;br/&gt; add_game(self, game: Game): &lt;br/&gt; first_game_in_list(self): &lt;br/&gt; remove_game(self, game): &lt;br/&gt; select_game(self, index): &lt;br/&gt; __iter__(self): &lt;br/&gt; __next__(self): &lt;/p&gt;" style="verticalAlign=top;align=left;overflow=fill;fontSize=14;fontFamily=Helvetica;html=1;rounded=0;shadow=0;comic=0;labelBackgroundColor=none;strokeWidth=1;">
      <mxGeometry x="-142" y="811" width="277" height="297" as="geometry" />
    </mxCell>
  </root>
</mxGraphModel>